<svg xmlns="http://www.w3.org/2000/svg" xmlns:xlink="http://www.w3.org/1999/xlink" width="170" height="50" viewBox="0 0 170 50">
  <defs>
    <linearGradient id="linear-gradient" x1="0.915" y1="0.049" x2="-0.384" y2="0.719" gradientUnits="objectBoundingBox">
      <stop offset="0" stop-color="#00a0ff"/>
      <stop offset="0.01" stop-color="#00a1ff"/>
      <stop offset="0.26" stop-color="#00beff"/>
      <stop offset="0.51" stop-color="#00d2ff"/>
      <stop offset="0.76" stop-color="#00dfff"/>
      <stop offset="1" stop-color="#00e3ff"/>
    </linearGradient>
    <linearGradient id="linear-gradient-2" x1="1.077" y1="0.5" x2="-1.306" y2="0.5" gradientUnits="objectBoundingBox">
      <stop offset="0" stop-color="#ffe000"/>
      <stop offset="0.41" stop-color="#ffbd00"/>
      <stop offset="0.78" stop-color="orange"/>
      <stop offset="1" stop-color="#ff9c00"/>
    </linearGradient>
    <linearGradient id="linear-gradient-3" x1="0.862" y1="0.179" x2="-0.501" y2="1.947" gradientUnits="objectBoundingBox">
      <stop offset="0" stop-color="#ff3a44"/>
      <stop offset="1" stop-color="#c31162"/>
    </linearGradient>
    <linearGradient id="linear-gradient-4" x1="-0.188" y1="-0.541" x2="0.421" y2="0.249" gradientUnits="objectBoundingBox">
      <stop offset="0" stop-color="#32a071"/>
      <stop offset="0.07" stop-color="#2da771"/>
      <stop offset="0.48" stop-color="#15cf74"/>
      <stop offset="0.8" stop-color="#06e775"/>
      <stop offset="1" stop-color="#00f076"/>
    </linearGradient>
  </defs>
  <g id="Group_4" data-name="Group 4" transform="translate(-168 -37)">
    <rect id="Rectangle_1" data-name="Rectangle 1" width="170" height="50" rx="25" transform="translate(168 37)"/>
    <g id="Group_6" data-name="Group 6" transform="translate(173.682 36.663)">
      <path id="Google_Play" data-name="Google Play" d="M42.227,19.731a4.682,4.682,0,0,1-4.345-2.913l1.891-.789a2.719,2.719,0,0,0,2.483,1.752c1.673,0,2.634-1.058,2.634-2.9v-.707h-.07a3.364,3.364,0,0,1-2.543,1.16h-.056a4.943,4.943,0,0,1,0-9.875,3.492,3.492,0,0,1,2.6,1.16H44.9V5.808h2v8.783a5.308,5.308,0,0,1-1.368,3.936,4.542,4.542,0,0,1-3.273,1.2Zm-2.55-9.283a2.991,2.991,0,0,0,2.73,2.993h.007a2.764,2.764,0,0,0,2.639-2.994,2.786,2.786,0,0,0-2.635-2.994A2.989,2.989,0,0,0,39.677,10.449Zm50.685,9.038,2.2-4.885L88.7,5.807h2.32L93.6,12.1h.07l2.482-6.289h2.414l-5.941,13.68ZM53.078,13.954a4.852,4.852,0,0,1-1.4-3.507,4.642,4.642,0,0,1,4.634-4.931h.008a4.67,4.67,0,0,1,4.223,3.144l.243.522-6.6,2.727a2.505,2.505,0,0,0,2.3,1.5l.1,0h.005A2.836,2.836,0,0,0,59,12.038l1.682,1.16A4.9,4.9,0,0,1,56.6,15.38H56.5A4.861,4.861,0,0,1,53.078,13.954Zm3.31-6.523a2.7,2.7,0,0,0-2.575,2.877l4.409-1.833a1.9,1.9,0,0,0-1.706-1.048C56.473,7.428,56.43,7.429,56.388,7.432ZM20.847,15.38a4.932,4.932,0,0,1-.011-9.863h.08a4.833,4.833,0,0,1,3.432,1.416,4.89,4.89,0,0,1,1.432,3.516,4.939,4.939,0,0,1-4.928,4.932ZM18.419,8.422a2.994,2.994,0,0,0,2.2,5.028c.07,0,.142,0,.222-.008h-.013a2.855,2.855,0,0,0,2.785-2.994,2.994,2.994,0,0,0-5.19-2.026Zm13.244,6.957a4.931,4.931,0,0,1-.025-9.862h.093a4.833,4.833,0,0,1,3.43,1.416,4.886,4.886,0,0,1,1.432,3.516,4.938,4.938,0,0,1-4.924,4.931ZM29.237,8.417a2.994,2.994,0,0,0,2.191,5.032c.076,0,.144,0,.21-.007a2.855,2.855,0,0,0,2.785-2.994,2.994,2.994,0,0,0-5.186-2.031ZM7.968,15.333a7.669,7.669,0,1,1,0-15.327,7.3,7.3,0,0,1,5.256,2.169L11.75,3.648a5.34,5.34,0,0,0-3.794-1.5,5.57,5.57,0,0,0,0,11.139,5.13,5.13,0,0,0,3.864-1.532,4.373,4.373,0,0,0,1.16-2.634H7.968V7.037l7.044-.058a6.907,6.907,0,0,1,.116,1.312,6.964,6.964,0,0,1-1.811,4.9A6.96,6.96,0,0,1,8.283,15.34C8.178,15.34,8.073,15.338,7.968,15.333Zm73.156-.847A3.376,3.376,0,0,1,80,12.131,2.9,2.9,0,0,1,81.31,9.713a5.084,5.084,0,0,1,2.867-.842h.02a4.8,4.8,0,0,1,2.243.557v-.15a2.084,2.084,0,0,0-2.32-1.868c-.055-.005-.113-.007-.169-.007a2.052,2.052,0,0,0-1.8,1.075l-1.927-.8a4.042,4.042,0,0,1,3.622-2.223c.081,0,.163,0,.242.007l.058.036c2.631,0,4.4,1.612,4.4,4.014V15.09H86.451v-1.16h-.07a3.038,3.038,0,0,1-2.566,1.4c-.072,0-.145,0-.218-.007s-.165.008-.246.008A3.353,3.353,0,0,1,81.124,14.486Zm3.32-3.851c-1.122,0-2.32.405-2.32,1.543,0,.895,1.039,1.229,1.694,1.229l.057.036a2.636,2.636,0,0,0,2.542-2.321,3.854,3.854,0,0,0-1.873-.489Zm-7.8,4.455V.585h2.17v14.5Zm-8.959,0H65.52V.585h5.2c.108-.008.216-.011.324-.011A4.538,4.538,0,0,1,74.9,2.739a4.491,4.491,0,0,1,0,4.7A4.541,4.541,0,0,1,71.042,9.6c-.108,0-.216,0-.324-.011H67.69v5.5h0Zm-.01-7.542h3.028l.047.034a2.489,2.489,0,1,0,0-4.977H67.678ZM48.452,15.09V.585h2.169v14.5Z" transform="translate(46.701 21.518)" fill="#fff"/>
      <path id="GET_IT_ON" data-name="GET IT ON" d="M3.627,7.282a3.654,3.654,0,0,1-2.565-6.23A3.477,3.477,0,0,1,3.627.007,3.6,3.6,0,0,1,5.054.3a2.885,2.885,0,0,1,1.091.778L5.53,1.69a2.321,2.321,0,0,0-1.9-.824,2.692,2.692,0,0,0-2.7,2.785A2.738,2.738,0,0,0,5.564,5.658a2.2,2.2,0,0,0,.581-1.416H3.627V3.406H7a2.83,2.83,0,0,1,.046.522,3.14,3.14,0,0,1-.87,2.32A3.375,3.375,0,0,1,3.748,7.284ZM32.333,6.226a3.763,3.763,0,0,1,0-5.163,3.6,3.6,0,0,1,5.106,0,3.744,3.744,0,0,1,0,5.163,3.619,3.619,0,0,1-5.106,0Zm.662-4.572a2.962,2.962,0,0,0,0,3.992,2.68,2.68,0,0,0,3.782,0,2.962,2.962,0,0,0,0-3.992,2.68,2.68,0,0,0-3.782,0ZM44.169,7.131,40.629,1.458V7.131h-.905V.169h1.091L44.2,5.588V.169H45.1V7.131Zm-18.623,0v-6.1H23.6V.169h4.781v.858H26.439v6.1Zm-3.968,0V.169h.893V7.131Zm-6.3,0v-6.1H13.328V.169h4.838v.858h-2v6.1Zm-6.974,0V.169h4.061v.858H9.231V3.233h2.855v.835H9.231v2.2h3.133v.858Z" transform="translate(47.248 9.751)" fill="#fff"/>
      <g id="Icon" transform="translate(13.37 11)">
        <path id="Shape" d="M.525.079A2.246,2.246,0,0,0,0,1.656V26.583A2.246,2.246,0,0,0,.525,28.16l.079.079L14.643,14.289v-.327L.6,0Z" transform="translate(0.007 0.38)" fill="url(#linear-gradient)"/>
        <path id="Shape-2" data-name="Shape" d="M4.645,9.7,0,5.019V4.691L4.645,0l.1.057,5.563,3.161c1.586.9,1.586,2.368,0,3.275L4.77,9.642Z" transform="translate(14.511 9.651)" fill="url(#linear-gradient-2)"/>
        <path id="Shape-3" data-name="Shape" d="M18.9,4.781,14.118,0,0,14.118a1.847,1.847,0,0,0,2.357.068l16.554-9.4" transform="translate(0.533 14.422)" fill="url(#linear-gradient-3)"/>
        <path id="Shape-4" data-name="Shape" d="M18.911,9.8,2.357.392A1.847,1.847,0,0,0,0,.46L14.129,14.578Z" transform="translate(0.521 0)" fill="url(#linear-gradient-4)"/>
        <path id="Shape-5" data-name="Shape" d="M18.763,0,2.345,9.348a1.892,1.892,0,0,1-2.266,0L0,9.427l.079.079a1.881,1.881,0,0,0,2.266,0L18.9.1Z" transform="translate(0.533 19.102)" opacity="0.2"/>
        <path id="Shape-6" data-name="Shape" d="M0,12.594a2.275,2.275,0,0,0,.521,1.366L.6,14.05l-.079.08A2.275,2.275,0,0,1,0,12.594Zm0-.221v.17q0,.025,0,.051Q0,12.484,0,12.373ZM19.186,4.68l5.635-3.207A2.1,2.1,0,0,0,25.948,0a1.984,1.984,0,0,1-1.127,1.632l-5.534,3.15Z" transform="translate(0.007 14.422)" opacity="0.12"/>
        <path id="Shape-7" data-name="Shape" d="M2.863.537,24.828,13.091a2.106,2.106,0,0,1,1.127,1.473,1.983,1.983,0,0,0-1.127-1.632L2.863.378C1.285-.517,0,.231,0,2.044v.17C.034.39,1.3-.358,2.863.537Z" transform="translate(0 0.013)" fill="#fff" opacity="0.25"/>
      </g>
    </g>
  </g>
</svg>
