<svg xmlns="http://www.w3.org/2000/svg" width="170" height="50" viewBox="0 0 170 50">
  <g id="Group_3" data-name="Group 3" transform="translate(-188 -37)">
    <rect id="Rectangle_1" data-name="Rectangle 1" width="170" height="50" rx="25" transform="translate(188 37)"/>
    <g id="Group_2" data-name="Group 2" transform="translate(200.194 34.856)">
      <path id="App_Store" data-name="App Store" d="M31.335,20.372H28.913V4.658h2.346V6.621H31.3a4.2,4.2,0,0,1,3.622-2.089l.137,0c3.02,0,4.972,2.366,4.972,6.027s-1.934,6.027-4.928,6.027c-.069,0-.14.006-.209.006a4,4,0,0,1-3.506-2.072h-.056v5.848h0Zm-.009-9.811c0,2.377,1.245,3.973,3.1,3.973,1.9,0,3.121-1.559,3.121-3.973S36.319,6.6,34.424,6.6C32.571,6.6,31.326,8.193,31.326,10.562ZM18.339,20.372H15.917V4.658h2.346V6.621h.045A4.2,4.2,0,0,1,21.93,4.532l.137,0c3.02,0,4.972,2.366,4.972,6.027s-1.934,6.027-4.928,6.027c-.069,0-.14.006-.209.006A4,4,0,0,1,18.4,14.523H18.34v5.848h0Zm-.009-9.811c0,2.377,1.244,3.973,3.1,3.973,1.9,0,3.121-1.559,3.121-3.973S23.323,6.6,21.428,6.6C19.574,6.6,18.33,8.193,18.33,10.562Zm27.814,1.391h2.481c.18,1.607,1.74,2.661,3.871,2.661,2.044,0,3.513-1.054,3.513-2.5,0-1.257-.886-2.01-2.985-2.526l-2.1-.506c-2.973-.718-4.354-2.108-4.354-4.365C46.571,1.919,49.006,0,52.464,0c3.423,0,5.768,1.919,5.848,4.714H55.864C55.719,3.1,54.382,2.122,52.43,2.122s-3.289.987-3.289,2.424c0,1.144.853,1.818,2.942,2.335l1.784.438c3.323.785,4.7,2.12,4.7,4.49,0,3.03-2.413,4.928-6.253,4.928C48.725,16.736,46.3,14.882,46.144,11.953Zm40.964-1.333c0-3.709,2.146-6.106,5.465-6.106,3.283,0,5.322,2.231,5.322,5.824v.83h-8.34v.147a3.072,3.072,0,0,0,3.061,3.345h.115c.083.007.168.012.251.012A2.66,2.66,0,0,0,95.458,13h2.3c-.324,2.128-2.416,3.614-5.085,3.614C89.241,16.613,87.108,14.316,87.108,10.619Zm3.337-3.27a3.009,3.009,0,0,0-.879,2.125h5.9a2.84,2.84,0,0,0-2.838-3h-.076A2.964,2.964,0,0,0,90.445,7.349Zm-23.1,3.214a6.347,6.347,0,0,1,1.52-4.418,5.923,5.923,0,0,1,8.165,0,6.351,6.351,0,0,1,1.517,4.418c0,3.731-2.146,6.05-5.6,6.05S67.346,14.294,67.346,10.563Zm2.47,0c0,2.537,1.17,4.052,3.13,4.052s3.132-1.515,3.132-4.052S74.908,6.51,72.946,6.51,69.816,8.024,69.816,10.563Zm-5.127,5.97c-2.391,0-3.323-.9-3.323-3.188V6.577H59.648V4.658h1.717V1.864H63.8V4.658h2.245V6.577H63.8v6.51c0,1.012.45,1.482,1.437,1.482a7.578,7.578,0,0,0,.8-.056v1.909a6.733,6.733,0,0,1-1.225.113ZM2.614,16.467H0L5.848.27H8.564l5.847,16.195H11.752l-1.481-4.378H4.1L2.615,16.466h0Zm2.122-6.4H9.63l-2.412-7.1H7.151Zm75.81,6.4V4.658h2.311v2.01h.056a2.817,2.817,0,0,1,2.841-2.133,3.722,3.722,0,0,1,.83.09V6.891A3.386,3.386,0,0,0,85.5,6.746,2.441,2.441,0,0,0,82.97,9.462v7Z" transform="translate(39.978 23.153)" fill="#fff"/>
      <path id="Download_on_the" data-name="Download on the" d="M87.564,8.279H87.5a2.668,2.668,0,0,1-2.645-3.033,2.709,2.709,0,0,1,2.683-3.068h.023c1.641,0,2.62,1.107,2.62,2.96v.4H86.031v.065a1.554,1.554,0,0,0,1.548,1.683H87.6a1.357,1.357,0,0,0,.168.011,1.409,1.409,0,0,0,1.229-.723h1.116a2.382,2.382,0,0,1-2.545,1.7ZM86.471,3.6a1.518,1.518,0,0,0-.44,1.082H89a1.416,1.416,0,0,0-1.412-1.521h-.055A1.49,1.49,0,0,0,86.471,3.6ZM58.111,7.86a2.77,2.77,0,0,1-1.3-2.633,2.782,2.782,0,1,1,5.539,0A2.782,2.782,0,0,1,58.111,7.86Zm-.1-2.633c0,1.285.574,2.022,1.574,2.022s1.575-.737,1.575-2.022-.574-2.018-1.575-2.018S58.008,3.944,58.008,5.227ZM34.62,7.86a2.766,2.766,0,0,1-1.3-2.634,2.783,2.783,0,1,1,5.54,0A2.783,2.783,0,0,1,34.62,7.86Zm-.1-2.634c0,1.285.574,2.022,1.575,2.022s1.575-.737,1.575-2.022-.574-2.018-1.575-2.018S34.515,3.944,34.515,5.226ZM9.139,7.86a2.766,2.766,0,0,1-1.3-2.633,2.782,2.782,0,1,1,5.539,0A2.782,2.782,0,0,1,9.139,7.86Zm-.1-2.633c0,1.285.574,2.022,1.575,2.022s1.575-.737,1.575-2.022-.574-2.018-1.575-2.018S9.035,3.944,9.035,5.227ZM40.667,7.817A1.779,1.779,0,0,1,40.078,6.5c0-1.042.776-1.666,2.184-1.754l1.59-.092V4.152c0-.624-.427-.97-1.2-.97-.649,0-1.1.238-1.224.653H40.3c.119-1.006,1.061-1.656,2.4-1.656,1.464,0,2.3.72,2.3,1.973V8.165H43.892V7.34H43.8a1.965,1.965,0,0,1-1.673.924c-.031,0-.061,0-.092,0a1.637,1.637,0,0,1-.185.011A1.767,1.767,0,0,1,40.667,7.817ZM42.42,5.6c-.8.054-1.176.324-1.176.847,0,.508.427.836,1.089.836a1.117,1.117,0,0,0,.139.007A1.382,1.382,0,0,0,43.853,6V5.511Zm6.549,2.66c-1.5,0-2.438-1.163-2.438-3.035,0-1.842.957-3.032,2.438-3.032l.088,0a1.93,1.93,0,0,1,1.713,1.033h.087V0h1.16V8.165H50.9V7.238h-.092a2.042,2.042,0,0,1-1.768,1.026ZM47.727,5.227c0,1.249.587,1.994,1.569,1.994s1.581-.763,1.581-1.99-.606-2-1.581-2S47.727,4,47.727,5.227ZM74.281,6.612V3.3h-.932V2.319h.932V.83h1.16v1.49h1.272V3.3H75.441V6.315c0,.615.254.885.831.885a3.7,3.7,0,0,0,.441-.027v.966a3.91,3.91,0,0,1-.63.059C74.794,8.2,74.281,7.745,74.281,6.612ZM82.19,8.165V4.66c0-.938-.437-1.413-1.256-1.413a1.37,1.37,0,0,0-1.478,1.488v3.43H78.3V0h1.149V3.236h.092a1.807,1.807,0,0,1,1.791-1.052,1.934,1.934,0,0,1,2.022,2.189V8.165Zm-14.456,0V4.654c0-.944-.411-1.412-1.268-1.412a1.347,1.347,0,0,0-1.4,1.487V8.165H63.9V2.292H65.02v.933h.087A1.758,1.758,0,0,1,66.859,2.18a1.91,1.91,0,0,1,2.033,2.183v3.8Zm-37.186,0V0h1.16V8.165Zm-3,0V4.654c0-.944-.411-1.412-1.268-1.412a1.347,1.347,0,0,0-1.4,1.487V8.165H23.714V2.292h1.115v.933h.087A1.758,1.758,0,0,1,26.669,2.18,1.909,1.909,0,0,1,28.7,4.363v3.8Zm-8.005,0L18.324,3.839h-.092L17.023,8.165h-1.19l-1.62-5.872H15.39l1.052,4.482h.087l1.208-4.482h1.112l1.208,4.482h.092l1.047-4.482h1.159L20.74,8.165ZM0,8.165V.384H2.811c.081-.006.164-.009.246-.009A3.442,3.442,0,0,1,6.473,4.25c0,2.487-1.336,3.915-3.662,3.915Zm1.209-1.1H2.676c.048,0,.1,0,.144,0a2.446,2.446,0,0,0,2.422-2.8A2.451,2.451,0,0,0,2.814,1.48q-.069,0-.137,0H1.209Z" transform="translate(41.6 10.764)" fill="#fff"/>
      <path id="Icon" d="M3.036,25.332C.568,21.726-1.352,15.174,1.223,10.714A7.081,7.081,0,0,1,7.179,7.081c1.89-.038,3.645,1.276,4.806,1.276,1.14,0,3.307-1.574,5.543-1.339a6.747,6.747,0,0,1,5.316,2.874,6.592,6.592,0,0,0-3.139,5.529,6.37,6.37,0,0,0,3.888,5.859A14.6,14.6,0,0,1,21.572,25.4c-1.191,1.782-2.44,3.523-4.423,3.555-1.925.044-2.572-1.134-4.782-1.134-2.229,0-2.919,1.1-4.767,1.178l-.1,0C5.663,29,4.249,27.066,3.036,25.332ZM11.758,6.687A6.171,6.171,0,0,1,13.281,2.21,6.6,6.6,0,0,1,17.553,0a6.488,6.488,0,0,1-1.485,4.648,5.457,5.457,0,0,1-4.255,2.039Z" transform="translate(7.739 11.16)" fill="#fff"/>
    </g>
  </g>
</svg>
