  <svg width="378" height="365" viewBox="0 0 378 365" fill="none" xmlns="http://www.w3.org/2000/svg">
            <style>
                #rotate_5 , #rotate_4 , #rotate_3 , #rotate_2 , #rotate_1 , #phone , #woman , 
                #opacity_2 , #opacity_3 {
                    transform-origin: center;
                    transform-box: fill-box;
                }
                #opacity_2 , #opacity_3 {
                    animation: opacity 1s linear infinite;
                }
                #rotate_2 , #rotate_1{
                    animation: spin 3s linear infinite;
                }
                #rotate_5 , #rotate_4 , #rotate_3 {
                    animation: spinreverse 3s linear infinite;
                }
                #woman{
                    animation: translateX 3s linear infinite;
                }
                #phone{
                    animation: rotation 3s linear infinite;
                }
                @keyframes translateX {

                    0%,
                    100% {
                        transform: translateX(0px);
                    }
                
                    50% {
                        transform: translateX(-20px);
                    }
                }
                @keyframes rotation {
                    0% {
                        transform: rotate(0deg);
                    }
                
                    50% {
                        transform: rotate(10deg);
                    }
                
                    100% {
                        transform: rotate(0deg);
                    }
                }
                @keyframes opacity {
                    0% {
                        opacity: 1;
                    }
                
                    50% {
                        opacity: .5;
                    }
                
                    100% {
                        opacity: 1;
                    }
                }
                @keyframes spin {
                    0% {
                        transform: rotate(0deg);
                    }
                
                    100% {
                        transform: rotate(360deg);
                    }
                }
                @keyframes spinreverse {
                    0% {
                        transform: rotate(0deg);
                    }
                
                    100% {
                        transform: rotate(-360deg);
                    }
                }
            </style>
            <g id="undraw Mobile app re catg">
            <path id="rotate_5" d="M252.654 93.703H239.899C239.249 93.7022 238.625 93.4435 238.165 92.9837C237.705 92.5238 237.447 91.9003 237.446 91.25V78.495C237.447 77.8447 237.705 77.2212 238.165 76.7613C238.625 76.3015 239.249 76.0428 239.899 76.042H252.654C253.304 76.0428 253.928 76.3015 254.388 76.7613C254.847 77.2212 255.106 77.8447 255.107 78.495V91.25C255.106 91.9003 254.847 92.5238 254.388 92.9837C253.928 93.4435 253.304 93.7022 252.654 93.703V93.703ZM239.899 77.023C239.509 77.0233 239.134 77.1784 238.858 77.4544C238.582 77.7304 238.427 78.1047 238.427 78.495V91.25C238.427 91.6403 238.582 92.0146 238.858 92.2906C239.134 92.5666 239.509 92.7217 239.899 92.722H252.654C253.044 92.7217 253.419 92.5666 253.695 92.2906C253.971 92.0146 254.126 91.6403 254.126 91.25V78.495C254.126 78.1047 253.971 77.7304 253.695 77.4544C253.419 77.1784 253.044 77.0233 252.654 77.023H239.899Z" fill="#E6E6E6"/>
            <path id="rotate_4" d="M104.005 17.661H91.25C90.5997 17.6602 89.9762 17.4015 89.5163 16.9417C89.0565 16.4818 88.7978 15.8583 88.797 15.208V2.453C88.7978 1.80267 89.0565 1.1792 89.5163 0.719345C89.9762 0.25949 90.5997 0.000793896 91.25 0H104.005C104.655 0.000793896 105.279 0.25949 105.739 0.719345C106.199 1.1792 106.457 1.80267 106.458 2.453V15.208C106.457 15.8583 106.199 16.4818 105.739 16.9417C105.279 17.4015 104.655 17.6602 104.005 17.661ZM91.25 0.981003C90.8597 0.981268 90.4854 1.13643 90.2094 1.41243C89.9334 1.68843 89.7782 2.06269 89.778 2.453V15.208C89.7782 15.5983 89.9334 15.9726 90.2094 16.2486C90.4854 16.5246 90.8597 16.6797 91.25 16.68H104.005C104.395 16.6797 104.77 16.5246 105.046 16.2486C105.322 15.9726 105.477 15.5983 105.477 15.208V2.453C105.477 2.06269 105.322 1.68843 105.046 1.41243C104.77 1.13643 104.395 0.981268 104.005 0.981003H91.25Z" fill="#E6E6E6"/>
            <path id="rotate_1" d="M244.805 87.325H232.05C231.4 87.3242 230.776 87.0655 230.316 86.6057C229.856 86.1458 229.598 85.5223 229.597 84.872V72.117C229.598 71.4667 229.856 70.8432 230.316 70.3833C230.776 69.9235 231.4 69.6648 232.05 69.664H244.805C245.455 69.6648 246.079 69.9235 246.539 70.3833C246.998 70.8432 247.257 71.4667 247.258 72.117V84.872C247.257 85.5223 246.998 86.1458 246.539 86.6057C246.079 87.0655 245.455 87.3242 244.805 87.325V87.325ZM232.05 70.645C231.66 70.6453 231.285 70.8004 231.009 71.0764C230.733 71.3524 230.578 71.7267 230.578 72.117V84.872C230.578 85.2623 230.733 85.6366 231.009 85.9126C231.285 86.1886 231.66 86.3437 232.05 86.344H244.805C245.195 86.3437 245.57 86.1886 245.846 85.9126C246.122 85.6366 246.277 85.2623 246.277 84.872V72.117C246.277 71.7267 246.122 71.3524 245.846 71.0764C245.57 70.8004 245.195 70.6453 244.805 70.645H232.05Z" fill="#E6E6E6"/>
            <path id="rotate_2" d="M23.058 193.783H10.303C9.65266 193.782 9.02919 193.523 8.56934 193.064C8.10948 192.604 7.8508 191.98 7.85001 191.33V178.575C7.8508 177.925 8.10948 177.301 8.56934 176.841C9.02919 176.381 9.65266 176.123 10.303 176.122H23.058C23.7083 176.123 24.3318 176.381 24.7917 176.841C25.2515 177.301 25.5102 177.925 25.511 178.575V191.33C25.5102 191.98 25.2515 192.604 24.7917 193.064C24.3318 193.523 23.7083 193.782 23.058 193.783ZM10.303 177.103C9.91268 177.103 9.53843 177.258 9.26244 177.534C8.98644 177.81 8.83126 178.185 8.83099 178.575V191.33C8.83126 191.72 8.98644 192.095 9.26244 192.371C9.53843 192.647 9.91268 192.802 10.303 192.802H23.058C23.4483 192.802 23.8226 192.647 24.0986 192.371C24.3746 192.095 24.5297 191.72 24.53 191.33V178.575C24.5297 178.185 24.3746 177.81 24.0986 177.534C23.8226 177.258 23.4483 177.103 23.058 177.103H10.303Z" fill="#E6E6E6"/>
            <path id="rotate_3" d="M15.208 187.406H2.45299C1.80266 187.405 1.17918 187.147 0.71933 186.687C0.259475 186.227 0.000793896 185.603 0 184.953V172.198C0.000793896 171.548 0.259475 170.924 0.71933 170.464C1.17918 170.004 1.80266 169.746 2.45299 169.745H15.208C15.8583 169.746 16.4818 170.004 16.9417 170.464C17.4015 170.924 17.6602 171.548 17.661 172.198V184.953C17.6602 185.603 17.4015 186.227 16.9417 186.687C16.4818 187.147 15.8583 187.405 15.208 187.406V187.406ZM2.45299 170.726C2.06267 170.726 1.68843 170.881 1.41243 171.157C1.13643 171.433 0.981252 171.808 0.980988 172.198V184.953C0.981252 185.343 1.13643 185.718 1.41243 185.994C1.68843 186.27 2.06267 186.425 2.45299 186.425H15.208C15.5983 186.425 15.9726 186.27 16.2486 185.994C16.5246 185.718 16.6797 185.343 16.68 184.953V172.198C16.6797 171.808 16.5246 171.433 16.2486 171.157C15.9726 170.881 15.5983 170.726 15.208 170.726H2.45299Z" fill="#E6E6E6"/>
            <g id="phone">
            <g id="group">
            <g id="Group 1">
            <path id="Path 6471" d="M45.345 42.21H163.389C169.085 42.2101 174.612 44.1482 179.061 47.7057C183.509 51.2631 186.615 56.2283 187.868 61.785L247.513 326.344C248.164 329.23 248.175 332.223 247.547 335.113C246.919 338.004 245.666 340.722 243.876 343.077C242.086 345.433 239.802 347.368 237.185 348.747C234.569 350.126 231.682 350.916 228.727 351.062L107.377 357.041C100.879 357.361 94.4868 355.306 89.3928 351.259C84.2988 347.213 80.8511 341.451 79.693 335.049L45.858 148.002L43.341 148.721L36.867 113.272L39.458 112.624L30.014 60.413C29.6094 58.1767 29.7032 55.8786 30.2886 53.6827C30.874 51.4867 31.9366 49.4469 33.4008 47.7088C34.865 45.9706 36.6945 44.5769 38.7591 43.627C40.8237 42.677 43.0724 42.1942 45.345 42.213V42.21Z" fill="#3F3D56"/>
            <path id="Path 6472" d="M147.849 47.913H161.628C165.585 47.9131 169.423 49.2665 172.505 51.7485C175.587 54.2305 177.727 57.6919 178.571 61.558L235.822 323.958C236.152 325.469 236.151 327.033 235.821 328.544C235.49 330.055 234.837 331.477 233.907 332.712C232.976 333.948 231.79 334.968 230.43 335.703C229.069 336.438 227.565 336.87 226.022 336.971L105.065 344.898C101.653 345.121 98.2774 344.081 95.5834 341.974C92.8894 339.868 91.0652 336.844 90.459 333.478L41.61 62.263C41.2937 60.5072 41.3667 58.7034 41.8238 56.979C42.2809 55.2545 43.111 53.6514 44.2554 52.2828C45.3999 50.9142 46.8308 49.8135 48.4472 49.0585C50.0635 48.3034 51.826 47.9124 53.61 47.913H66.681C67.9462 47.913 69.1761 48.3301 70.1803 49.0997C71.1845 49.8692 71.907 50.9484 72.236 52.17V52.17C72.5262 53.2479 73.1634 54.2001 74.0491 54.8794C74.9348 55.5587 76.0198 55.9272 77.136 55.928H139.192C141.379 55.9281 143.486 55.1027 145.091 53.6167C146.695 52.1307 147.68 50.0937 147.848 47.913H147.849Z" fill="white"/>
            <path id="opacity_1" d="M51.022 92.528H182.243L196.222 155.522L63.286 157.975L51.022 92.528Z" fill="#F8B436"/>
            <path id="opacity_2" d="M175.632 211.815H206.525L207.506 217.729H176.613L175.632 211.815Z" fill="#F8B436"/>
            <path id="Rectangle 1035" d="M200.768 181.646L69.748 184.42L69.7611 185.037L200.781 182.263L200.768 181.646Z" fill="#2F2E41"/>
            <path id="Rectangle 1036" d="M204.809 199.844L71.288 202.915L71.3022 203.532L204.823 200.461L204.809 199.844Z" fill="#2F2E41"/>
            <path id="opacity_3" d="M188.387 275.101H219.28L220.261 281.015H189.368L188.387 275.101Z" fill="#F8B436"/>
            <path id="Rectangle 1037" d="M213.523 244.933L82.503 247.707L82.5161 248.324L213.536 245.55L213.523 244.933Z" fill="#2F2E41"/>
            <path id="Rectangle 1038" d="M217.565 263.13L84.044 266.201L84.0582 266.818L217.579 263.747L217.565 263.13Z" fill="#2F2E41"/>
            </g>
            </g>
            <g id="Group 3652 1" clip-path="url(#clip0)">
            <g id="Group 3652">
            <path id="Path 6365" d="M94.4705 147.392L94.3274 145.347L95.8887 142.465L95.1204 142.519L94.4599 143.898C94.2834 144.275 94.127 144.602 94.0013 144.926L93.9856 144.927C93.7988 144.601 93.6236 144.322 93.3963 143.972L92.566 142.698L91.7976 142.751L93.6446 145.402L93.7871 147.44L94.4705 147.392ZM102.979 141.892C101.582 141.989 100.619 143.059 100.726 144.587C100.828 146.041 101.867 146.956 103.247 146.86C104.582 146.767 105.615 145.814 105.499 144.159C105.401 142.731 104.407 141.791 102.979 141.891L102.979 141.892ZM102.983 142.399C104.109 142.32 104.722 143.28 104.789 144.236C104.865 145.326 104.326 146.274 103.251 146.349C102.177 146.424 101.518 145.546 101.446 144.519C101.373 143.464 101.865 142.477 102.983 142.399V142.399ZM112.985 141.192C111.588 141.29 110.625 142.36 110.732 143.887C110.834 145.341 111.873 146.257 113.253 146.16C114.588 146.067 115.621 145.114 115.506 143.46C115.408 142.031 114.414 141.091 112.986 141.191L112.985 141.192ZM112.989 141.699C114.115 141.621 114.728 142.58 114.795 143.536C114.871 144.627 114.332 145.574 113.258 145.649C112.183 145.724 111.524 144.846 111.452 143.82C111.379 142.764 111.872 141.777 112.99 141.699L112.989 141.699ZM125.755 145.205L126.418 145.158L125.756 140.377L124.895 140.437L124.126 142.826C123.935 143.448 123.783 143.989 123.687 144.483L123.664 144.484C123.497 143.995 123.282 143.48 123.023 142.903L121.967 140.642L121.105 140.702L121.077 145.532L121.721 145.487L121.717 143.417C121.713 142.694 121.696 141.886 121.669 141.286L121.685 141.285C121.872 141.844 122.125 142.45 122.418 143.11L123.421 145.339L123.934 145.303L124.694 142.908C124.912 142.227 125.088 141.613 125.23 141.037L125.253 141.035C125.287 141.634 125.39 142.435 125.476 143.106L125.755 145.205ZM133.961 144.631L133.818 142.585L135.379 139.704L134.611 139.758L133.951 141.136C133.774 141.514 133.618 141.84 133.492 142.164L133.476 142.165C133.289 141.84 133.114 141.56 132.887 141.211L132.057 139.936L131.288 139.99L133.135 142.64L133.278 144.679L133.961 144.631ZM140.511 144.252C140.574 144.249 140.636 144.235 140.694 144.209C140.751 144.182 140.801 144.145 140.842 144.1C140.883 144.055 140.913 144.002 140.931 143.945C140.949 143.888 140.954 143.829 140.945 143.77C140.946 143.712 140.933 143.654 140.908 143.601C140.883 143.547 140.847 143.499 140.801 143.46C140.755 143.421 140.7 143.391 140.641 143.373C140.581 143.354 140.519 143.348 140.456 143.354C140.393 143.357 140.331 143.372 140.274 143.398C140.218 143.424 140.167 143.461 140.126 143.507C140.086 143.552 140.055 143.604 140.037 143.661C140.019 143.717 140.014 143.777 140.022 143.835C140.022 143.893 140.035 143.951 140.06 144.004C140.086 144.057 140.122 144.104 140.168 144.143C140.214 144.182 140.269 144.212 140.328 144.23C140.387 144.249 140.449 144.256 140.512 144.251L140.511 144.252ZM149.97 142.857C149.631 143.019 149.26 143.113 148.882 143.134C148.608 143.172 148.33 143.153 148.066 143.079C147.803 143.006 147.56 142.879 147.356 142.708C147.151 142.538 146.99 142.327 146.883 142.091C146.776 141.855 146.725 141.6 146.736 141.343C146.688 141.085 146.701 140.82 146.775 140.566C146.848 140.312 146.98 140.076 147.162 139.873C147.343 139.671 147.569 139.508 147.824 139.395C148.079 139.282 148.357 139.222 148.639 139.219C149.002 139.187 149.367 139.23 149.708 139.345L149.836 138.828C149.434 138.698 149.004 138.655 148.579 138.701C148.215 138.707 147.856 138.784 147.525 138.928C147.193 139.071 146.898 139.278 146.656 139.534C146.415 139.79 146.234 140.09 146.125 140.415C146.016 140.739 145.981 141.081 146.023 141.418C146.019 141.743 146.09 142.065 146.231 142.361C146.372 142.658 146.581 142.921 146.842 143.135C147.104 143.348 147.412 143.506 147.746 143.598C148.08 143.69 148.432 143.714 148.778 143.668C149.252 143.649 149.717 143.539 150.144 143.343L149.97 142.857ZM157.274 138.092C155.876 138.189 154.914 139.259 155.021 140.787C155.122 142.241 156.161 143.156 157.541 143.06C158.877 142.966 159.91 142.013 159.794 140.359C159.697 138.934 158.703 137.994 157.275 138.094L157.274 138.092ZM157.278 138.599C158.403 138.52 159.017 139.48 159.084 140.435C159.16 141.526 158.621 142.474 157.546 142.549C156.472 142.624 155.813 141.746 155.741 140.719C155.668 139.667 156.161 138.68 157.279 138.602L157.278 138.599Z" fill="white"/>
            <g id="Group 3651">
            <path id="Path 6366" d="M102.804 127.246L90.8043 128.085L90.519 124.005L102.519 123.166L102.804 127.246ZM114.643 126.418L111.674 126.625C111.284 126.637 110.898 126.566 110.544 126.418C110.19 126.269 109.878 126.047 109.631 125.768C109.523 126.073 109.32 126.343 109.046 126.54C108.773 126.738 108.443 126.855 108.099 126.875L101.737 127.32L101.452 123.24L104.193 123.048C104.916 122.998 105.37 122.846 105.554 122.593C105.729 122.169 105.836 121.725 105.873 121.274L107.124 112.887L112.148 114.012L111.131 121.153C111.095 121.36 111.08 121.569 111.085 121.779C111.122 122.302 111.502 122.539 112.225 122.489L114.358 122.339L114.643 126.418ZM111.333 128.896L110.828 132.653L106.268 132.972L106.81 129.212L111.333 128.896ZM105.5 129.304L105.031 133.058L100.464 133.378L101.005 129.618L105.5 129.304ZM130.252 115.65L129.419 121.366C129.347 122.286 129.095 123.188 128.676 124.026C128.054 125.009 126.896 125.56 125.201 125.679L119.657 126.066C118.555 126.144 117.877 125.896 117.622 125.323C117.457 125.581 117.234 125.804 116.968 125.975C116.703 126.147 116.401 126.263 116.084 126.316L113.131 126.523L112.846 122.443L115.442 122.261C116.425 122.193 117.003 121.6 117.175 120.483L117.581 117.861C117.976 115.341 118.323 113.83 118.622 113.328C119.144 112.46 120.283 111.965 122.037 111.843L126.516 111.529C127.405 111.41 128.31 111.505 129.144 111.805C129.529 112.008 129.846 112.306 130.06 112.667C130.275 113.028 130.378 113.438 130.359 113.852C130.386 114.452 130.35 115.055 130.252 115.65V115.65ZM125.39 114.531L124.643 114.584C123.575 114.658 122.905 115.04 122.631 115.729C122.58 115.854 122.46 116.697 122.272 118.259L121.841 121.815L122.462 121.772C123.074 121.797 123.676 121.612 124.155 121.252C124.466 120.758 124.642 120.201 124.666 119.631L125.39 114.531ZM147.705 124.106L143.171 124.423C141.834 126.477 140.161 128.325 138.213 129.901L133.827 127.438C135.353 126.237 136.676 124.828 137.75 123.26C136.497 123.06 135.317 122.58 134.312 121.86C133.806 121.523 133.385 121.087 133.078 120.582C132.771 120.077 132.585 119.515 132.533 118.934C132.442 117.629 133.235 115.944 134.913 113.881C136.622 111.771 138.171 110.668 139.558 110.571C143.587 110.289 145.723 111.889 145.967 115.371C146.03 116.762 145.887 118.157 145.542 119.517C145.486 119.744 145.399 119.965 145.285 120.174L147.418 120.025L147.705 124.106ZM141.368 117.48C141.621 116.956 141.747 116.387 141.736 115.814C141.686 115.096 141.317 114.761 140.63 114.809C139.917 114.945 139.281 115.323 138.846 115.868C137.924 116.808 137.485 117.604 137.531 118.257C137.595 119.17 138.392 119.667 139.921 119.746C140.572 119.095 141.064 118.322 141.365 117.48L141.368 117.48ZM157.481 110.842L156.05 119.504C155.958 120.408 155.731 121.297 155.377 122.145C154.792 123.137 153.663 123.691 151.992 123.808L146.479 124.194L146.194 120.114L149.514 119.882C150.238 119.831 150.691 119.679 150.875 119.425C151.049 119.001 151.156 118.557 151.193 118.106L152.452 109.72L157.481 110.842ZM156.148 125.762L155.638 129.521L151.081 129.839L151.623 126.08L156.148 125.762ZM150.315 126.17L149.847 129.924L145.276 130.244L145.817 126.484L150.315 126.17Z" fill="white"/>
            <g id="Group 3650">
            <path id="Path 6364" d="M154.247 98.1809C154.827 98.1553 155.397 98.3169 155.86 98.6382C156.323 98.9595 156.651 99.4209 156.79 99.9447C156.928 100.468 156.867 101.022 156.619 101.513C156.37 102.004 155.948 102.401 155.424 102.638C154.9 102.875 154.306 102.937 153.743 102.814C153.179 102.691 152.68 102.39 152.331 101.962C151.981 101.534 151.801 101.005 151.823 100.464C151.844 99.924 152.064 99.4051 152.447 98.9953C152.673 98.7531 152.949 98.556 153.259 98.4159C153.568 98.2759 153.905 98.1959 154.247 98.1809V98.1809ZM156.258 100.461C156.241 99.9747 156.02 99.516 155.642 99.1829C155.461 99.029 155.247 98.9112 155.015 98.8368C154.782 98.7625 154.535 98.733 154.289 98.7502C154.043 98.7674 153.803 98.831 153.583 98.937C153.363 99.043 153.168 99.1893 153.01 99.367C152.697 99.7552 152.543 100.234 152.577 100.716C152.61 101.198 152.829 101.651 153.193 101.991C153.375 102.145 153.588 102.262 153.82 102.336C154.052 102.41 154.299 102.44 154.544 102.422C154.79 102.405 155.03 102.342 155.25 102.236C155.469 102.131 155.664 101.985 155.822 101.808C156.151 101.428 156.308 100.944 156.258 100.461V100.461ZM155.76 100.861C155.732 101.148 155.6 101.418 155.385 101.627C155.177 101.823 154.898 101.94 154.604 101.954C154.415 101.975 154.224 101.959 154.043 101.907C153.862 101.855 153.695 101.768 153.553 101.652C153.412 101.529 153.299 101.381 153.221 101.216C153.142 101.051 153.1 100.874 153.096 100.693C153.05 100.324 153.162 99.9515 153.408 99.6561C153.532 99.5202 153.686 99.4102 153.858 99.3331C154.031 99.256 154.219 99.2136 154.409 99.2088C154.713 99.1772 155.018 99.2506 155.265 99.4151C155.502 99.5811 155.66 99.8273 155.705 100.102L155.097 100.144C155.086 100.083 155.061 100.025 155.024 99.9742C154.987 99.9231 154.939 99.8801 154.882 99.8479C154.752 99.7774 154.599 99.7484 154.448 99.7654C154.349 99.768 154.251 99.7927 154.163 99.8373C154.076 99.882 154 99.9454 153.944 100.022C153.821 100.209 153.77 100.428 153.799 100.644C153.801 100.856 153.883 101.061 154.031 101.221C154.098 101.288 154.181 101.339 154.273 101.371C154.365 101.402 154.464 101.413 154.562 101.402C154.71 101.397 154.853 101.344 154.965 101.252C155.071 101.162 155.137 101.039 155.15 100.907L155.76 100.861Z" fill="white"/>
            </g>
            </g>
            </g>
            </g>
            </g>
            <g id="woman">
            <path id="Path 6476" d="M301.985 358.728H296.14L293.359 336.182H301.985V358.728Z" fill="#D7A4A6"/>
            <path id="Path 6477" d="M303.479 364.39H284.631V364.152C284.631 362.206 285.404 360.34 286.78 358.965C288.155 357.589 290.021 356.816 291.967 356.816H303.48L303.479 364.39Z" fill="#2F2E41"/>
            <path id="Path 6478" d="M374.604 354.896L368.915 356.236L361.04 334.928L369.44 332.95L374.604 354.896Z" fill="#D7A4A6"/>
            <path id="Path 6479" d="M377.354 360.075L359.008 364.395L358.953 364.163C358.507 362.269 358.832 360.276 359.856 358.622C360.88 356.967 362.518 355.787 364.412 355.341V355.341L375.617 352.703L377.354 360.075Z" fill="#2F2E41"/>
            <path id="Path 6480" d="M300.794 263.627C300.805 262.452 301.153 234.727 308.754 224.239L308.866 224.084L335.354 227.738L334.762 233.558C335.927 234.691 345.091 244.267 347.738 266.945L375.853 342.454L362.783 343.642L324.092 261.214L303.617 350.814H290.659L300.794 263.627Z" fill="#2F2E41"/>
            <path id="Path 6481" d="M305.651 225.262L308.24 211.668C306.579 209.553 305.775 206.89 305.987 204.209C306.212 202.926 306.708 201.705 307.441 200.628C308.174 199.551 309.128 198.642 310.239 197.962L316.95 182.302L317.04 182.249C317.492 181.983 328.178 175.804 334.003 181.633C334.149 181.746 348.492 193.133 342.732 208.491L335.621 229.824L305.651 225.262Z" fill="#F8B436"/>
            <path id="Path 6482" d="M296.643 243.654C297.341 243.574 298.013 243.342 298.612 242.975C299.211 242.607 299.722 242.112 300.109 241.526C300.496 240.939 300.75 240.275 300.853 239.58C300.955 238.885 300.904 238.175 300.703 237.502L314.563 227.516L306.263 224.36L294.374 234.326C293.265 234.739 292.347 235.544 291.792 236.59C291.238 237.635 291.086 238.847 291.365 239.996C291.645 241.146 292.336 242.153 293.308 242.827C294.281 243.501 295.466 243.795 296.641 243.653L296.643 243.654Z" fill="#D7A4A6"/>
            <path id="Path 6483" d="M299.19 227.499L320.349 210.828L314.058 189.336C313.761 188.318 313.677 187.25 313.811 186.199C313.946 185.147 314.295 184.135 314.837 183.224C315.339 182.366 316.015 181.622 316.822 181.04C317.628 180.457 318.547 180.05 319.52 179.844C323.142 179.078 326.431 181.106 329.291 185.873L329.313 185.916C329.786 187.073 340.813 214.322 332.393 220.149C324.16 225.849 305.067 234.149 304.875 234.23L304.651 234.33L299.19 227.499Z" fill="#F8B436"/>
            <path id="Ellipse 42" d="M327.311 175.967C334.39 175.967 340.129 170.228 340.129 163.149C340.129 156.07 334.39 150.331 327.311 150.331C320.232 150.331 314.493 156.07 314.493 163.149C314.493 170.228 320.232 175.967 327.311 175.967Z" fill="#D7A4A6"/>
            <path id="Ellipse 43" d="M347.407 158.574C353.67 158.574 358.747 153.497 358.747 147.234C358.747 140.971 353.67 135.894 347.407 135.894C341.144 135.894 336.067 140.971 336.067 147.234C336.067 153.497 341.144 158.574 347.407 158.574Z" fill="#2F2E41"/>
            <path id="Path 6484" d="M357.188 156.624C355.72 157.685 354.02 158.379 352.229 158.648C350.438 158.917 348.609 158.753 346.894 158.17C345.179 157.587 343.629 156.602 342.374 155.297C341.118 153.992 340.193 152.406 339.676 150.67C339.872 152.225 340.389 153.722 341.193 155.067C341.996 156.413 343.07 157.577 344.347 158.486C345.623 159.395 347.074 160.03 348.608 160.35C350.142 160.671 351.726 160.67 353.26 160.348C354.793 160.025 356.243 159.388 357.518 158.477C358.794 157.567 359.866 156.401 360.668 155.055C361.471 153.709 361.985 152.211 362.179 150.656C362.374 149.101 362.243 147.522 361.797 146.02C362.05 148.038 361.756 150.087 360.945 151.952C360.134 153.817 358.836 155.429 357.188 156.62V156.624Z" fill="#2F2E41"/>
            <path id="Path 6485" d="M312.436 156.639C314.416 153.095 315.173 151.614 317.726 149.459C319.983 147.553 322.76 146.993 324.999 148.799C327.723 147.61 330.763 147.354 333.647 148.07C336.531 148.786 339.098 150.435 340.948 152.76C342.799 155.085 343.83 157.956 343.882 160.928C343.933 163.899 343.001 166.804 341.232 169.192C339.462 171.579 336.954 173.315 334.096 174.131C331.238 174.946 328.191 174.795 325.428 173.7C322.666 172.606 320.341 170.63 318.817 168.079C317.293 165.528 316.654 162.545 316.999 159.593C315.052 159.317 314.383 156.909 312.436 156.639Z" fill="#2F2E41"/>
            </g>
            </g>
            <defs>
            <clipPath id="clip0">
            <rect width="68" height="45" fill="white" transform="translate(89 102.743) rotate(-4)"/>
            </clipPath>
            </defs>
        </svg>