<svg xmlns="http://www.w3.org/2000/svg" width="19.296" height="19.296" viewBox="0 0 19.296 19.296">
  <path id="Icon_metro-instagram" data-name="Icon metro-instagram" d="M18.663,1.928H5.774a3.213,3.213,0,0,0-3.2,3.2V18.02a3.213,3.213,0,0,0,3.2,3.2H18.663a3.213,3.213,0,0,0,3.2-3.2V5.131A3.213,3.213,0,0,0,18.663,1.928ZM8.748,10.37h6.942a3.674,3.674,0,1,1-6.942,0Zm10.707,0v7.235a1.21,1.21,0,0,1-1.206,1.206H6.189a1.21,1.21,0,0,1-1.206-1.206V10.37H6.869a5.483,5.483,0,1,0,10.7,0h1.886Zm0-4.222a.6.6,0,0,1-.6.6H17.645a.6.6,0,0,1-.6-.6V4.943a.6.6,0,0,1,.6-.6h1.206a.6.6,0,0,1,.6.6Z" transform="translate(-2.571 -1.928)" fill="#443b62"/>
</svg>
